<svg version="1.2" baseProfile="tiny-ps" xmlns="http://www.w3.org/2000/svg" viewBox="0 0 182 34" width="182" height="34">
	<title>Logo</title>
	<style>
		tspan { white-space:pre }
		.shp0 { fill: #ffffff } 
		.txt1 { font-size: 15px;line-height: 15px;fill: #ffffff;font-weight: 400;font-family: "Raleway-Regular", "Raleway" } 
		.txt2 { font-size: 15px;line-height: 15px;fill: #ffffff;font-weight: 800;font-family: "Raleway-ExtraBold", "Raleway" } 
	</style>
	<g id="Logo">
		<path id="Shape 1" class="shp0" d="M27.66 6.32C28.04 6.34 28.41 6.35 28.78 6.36C29.09 6.36 29.5 6.34 29.74 6.4C30.25 6.4 30.75 6.4 31.26 6.4C31.66 6.55 31.97 6.86 32.02 7.36C32 7.36 31.99 7.36 31.98 7.36C31.96 7.44 31.95 7.52 31.94 7.6C31.92 7.6 31.91 7.6 31.9 7.6C31.9 7.64 31.9 7.68 31.9 7.72C31.87 7.74 31.84 7.75 31.82 7.76C31.82 7.79 31.82 7.82 31.82 7.84C31.5 8.15 31.18 8.46 30.86 8.76C29.93 9.71 28.99 10.66 28.06 11.61C26.64 11.61 25.21 11.61 23.79 11.61C23.47 11.94 23.15 12.27 22.83 12.6C22.76 12.66 22.7 12.71 22.63 12.77C22.35 13.15 22 13.43 21.67 13.77C21.23 14.22 20.79 14.67 20.36 15.13C20.09 15.32 19.86 15.54 19.64 15.77C18.96 16.46 18.28 17.15 17.6 17.85C17.56 17.85 17.52 17.85 17.48 17.85C17.47 17.87 17.45 17.9 17.44 17.93C17.37 17.94 17.31 17.95 17.24 17.97C17.24 17.98 17.24 17.99 17.24 18.01C17.01 18.08 16.59 17.92 16.48 17.85C16.42 17.77 16.35 17.69 16.28 17.61C16.26 17.59 16.23 17.58 16.2 17.57C16.19 17.51 16.18 17.46 16.16 17.41C16.15 17.41 16.14 17.41 16.12 17.41C16.12 17.38 16.12 17.35 16.12 17.33C16.11 17.33 16.1 17.33 16.08 17.33C16.08 17.3 16.08 17.27 16.08 17.25C16.07 17.25 16.06 17.25 16.04 17.25C16.04 17.09 16.04 16.93 16.04 16.77C16.06 16.77 16.07 16.77 16.08 16.77C16.1 16.71 16.11 16.66 16.12 16.61C16.14 16.61 16.15 16.61 16.16 16.61C16.16 16.57 16.16 16.53 16.16 16.49C16.19 16.47 16.22 16.46 16.24 16.45C16.24 16.42 16.24 16.39 16.24 16.37C16.26 16.37 16.27 16.37 16.28 16.37C16.34 16.29 16.37 16.27 16.4 16.17C16.43 16.17 16.45 16.17 16.48 16.17C16.51 16.04 16.56 16 16.68 15.97C16.68 15.94 16.68 15.91 16.68 15.89C16.71 15.89 16.73 15.89 16.76 15.89C16.76 15.86 16.76 15.83 16.76 15.81C16.79 15.81 16.81 15.81 16.84 15.81C16.84 15.78 16.84 15.75 16.84 15.73C16.87 15.73 16.89 15.73 16.92 15.73C16.92 15.7 16.92 15.67 16.92 15.65C16.95 15.65 16.97 15.65 17 15.65C17.03 15.54 17.01 15.56 17.12 15.53C17.12 15.5 17.12 15.47 17.12 15.45C17.15 15.45 17.17 15.45 17.2 15.45C17.2 15.42 17.2 15.39 17.2 15.37C17.23 15.37 17.25 15.37 17.28 15.37C17.28 15.34 17.28 15.31 17.28 15.29C17.31 15.29 17.33 15.29 17.36 15.29C17.36 15.26 17.36 15.23 17.36 15.21C17.39 15.21 17.41 15.21 17.44 15.21C17.44 15.18 17.44 15.15 17.44 15.13C17.47 15.13 17.49 15.13 17.52 15.13C17.55 15.02 17.53 15.04 17.64 15.01C17.64 14.98 17.64 14.95 17.64 14.93C17.67 14.93 17.69 14.93 17.72 14.93C17.72 14.9 17.72 14.87 17.72 14.85C17.75 14.85 17.77 14.85 17.8 14.85C17.8 14.82 17.8 14.79 17.8 14.77C17.83 14.77 17.85 14.77 17.88 14.77C17.88 14.74 17.88 14.71 17.88 14.69C17.91 14.69 17.93 14.69 17.96 14.69C17.96 14.66 17.96 14.63 17.96 14.61C17.99 14.61 18.01 14.61 18.04 14.61C18.07 14.49 18.05 14.52 18.16 14.49C18.16 14.46 18.16 14.43 18.16 14.41C18.19 14.41 18.21 14.41 18.24 14.41C18.24 14.38 18.24 14.35 18.24 14.33C18.27 14.33 18.29 14.33 18.32 14.33C18.32 14.3 18.32 14.27 18.32 14.25C18.35 14.25 18.37 14.25 18.4 14.25C18.4 14.22 18.4 14.19 18.4 14.17C18.43 14.17 18.45 14.17 18.48 14.17C18.48 14.14 18.48 14.11 18.48 14.09C18.5 14.09 18.53 14.09 18.56 14.09C18.59 13.97 18.57 14 18.68 13.97C18.68 13.94 18.68 13.91 18.68 13.89C18.7 13.89 18.73 13.89 18.76 13.89C18.76 13.86 18.76 13.83 18.76 13.81C18.78 13.81 18.81 13.81 18.84 13.81C18.89 13.61 19.25 13.35 19.4 13.21C19.4 13.19 19.4 13.18 19.4 13.17C19.84 12.74 20.28 12.31 20.71 11.88C20.85 11.75 21.08 11.42 21.27 11.37C21.27 11.34 21.27 11.31 21.27 11.29C21.3 11.29 21.33 11.29 21.35 11.29C21.35 11.26 21.35 11.23 21.35 11.21C21.38 11.21 21.41 11.21 21.43 11.21C21.43 11.18 21.43 11.15 21.43 11.13C21.46 11.13 21.49 11.13 21.51 11.13C21.54 11.01 21.52 11.04 21.63 11C21.63 10.98 21.63 10.95 21.63 10.93C21.66 10.93 21.69 10.93 21.71 10.93C21.71 10.9 21.71 10.87 21.71 10.84C21.74 10.84 21.77 10.84 21.79 10.84C21.79 10.82 21.79 10.79 21.79 10.77C21.82 10.77 21.85 10.77 21.87 10.77C21.87 10.74 21.87 10.71 21.87 10.68C21.9 10.68 21.93 10.68 21.95 10.68C21.95 10.66 21.95 10.63 21.95 10.6C22.06 10.58 22.04 10.59 22.07 10.48C22.1 10.48 22.13 10.48 22.15 10.48C22.15 10.46 22.15 10.43 22.15 10.41C22.18 10.41 22.21 10.41 22.23 10.41C22.23 10.38 22.23 10.35 22.23 10.32C22.26 10.32 22.29 10.32 22.31 10.32C22.31 10.3 22.31 10.27 22.31 10.24C22.34 10.24 22.37 10.24 22.39 10.24C22.47 9.8 22.43 9.19 22.43 8.68C22.43 7.75 22.43 6.82 22.43 5.88C22.53 5.83 22.56 5.73 22.63 5.68C22.97 5.44 23.22 5.14 23.51 4.84C24.19 4.18 24.87 3.51 25.55 2.84C25.73 2.64 25.92 2.44 26.11 2.24C26.13 2.24 26.16 2.24 26.19 2.24C26.2 2.22 26.21 2.19 26.23 2.16C26.25 2.16 26.28 2.16 26.31 2.16C26.32 2.14 26.33 2.11 26.35 2.08C26.41 2.04 26.73 1.96 26.86 2C26.86 2.02 26.86 2.03 26.86 2.04C26.9 2.04 26.94 2.04 26.98 2.04C26.98 2.06 26.98 2.07 26.98 2.08C27.01 2.08 27.04 2.08 27.06 2.08C27.08 2.11 27.09 2.14 27.1 2.16C27.14 2.16 27.18 2.16 27.22 2.16C27.22 2.18 27.22 2.19 27.22 2.2C27.3 2.27 27.38 2.34 27.46 2.4C27.46 2.43 27.46 2.46 27.46 2.48C27.48 2.48 27.49 2.48 27.5 2.48C27.5 2.51 27.5 2.54 27.5 2.56C27.52 2.56 27.53 2.56 27.54 2.56C27.54 2.6 27.54 2.64 27.54 2.68C27.56 2.68 27.57 2.68 27.58 2.68C27.58 2.91 27.58 3.14 27.58 3.36C27.65 3.61 27.55 4.03 27.62 4.28C27.64 4.28 27.65 4.28 27.66 4.28C27.66 4.96 27.66 5.64 27.66 6.32ZM20.32 8.08C20.2 8.04 20.08 8 19.96 7.96C19.96 7.95 19.96 7.94 19.96 7.92C19.88 7.91 19.8 7.9 19.72 7.88C19.72 7.87 19.72 7.86 19.72 7.84C19.69 7.84 19.66 7.84 19.64 7.84C19.64 7.83 19.64 7.82 19.64 7.81C19.56 7.79 19.48 7.78 19.4 7.76C19.4 7.75 19.4 7.74 19.4 7.72C19.36 7.72 19.32 7.72 19.28 7.72C19.28 7.71 19.28 7.7 19.28 7.68C19.18 7.67 19.09 7.66 19 7.64C19 7.63 19 7.62 19 7.6C18.9 7.59 18.81 7.58 18.72 7.56C18.72 7.55 18.72 7.54 18.72 7.52C18.2 7.43 17.68 7.34 17.16 7.24C16.99 7.24 16.81 7.24 16.64 7.24C16.64 7.23 16.64 7.22 16.64 7.2C16.43 7.15 15.52 7.2 15.36 7.24C15.19 7.24 15.02 7.24 14.84 7.24C14.84 7.26 14.84 7.27 14.84 7.28C14.74 7.28 14.63 7.28 14.52 7.28C14.52 7.3 14.52 7.31 14.52 7.32C14.43 7.32 14.34 7.32 14.25 7.32C14.25 7.34 14.25 7.35 14.25 7.36C14.18 7.36 14.11 7.36 14.05 7.36C14.05 7.38 14.05 7.39 14.05 7.4C13.97 7.4 13.89 7.4 13.81 7.4C13.81 7.42 13.81 7.43 13.81 7.44C13.75 7.44 13.7 7.44 13.65 7.44C13.65 7.46 13.65 7.47 13.65 7.48C13.53 7.5 13.41 7.51 13.29 7.52C12.81 7.68 12.33 7.84 11.85 8C11.85 8.02 11.85 8.03 11.85 8.04C11.8 8.06 11.74 8.07 11.69 8.08C11.69 8.1 11.69 8.11 11.69 8.12C11.66 8.12 11.64 8.12 11.61 8.12C11.61 8.14 11.61 8.15 11.61 8.17C11.57 8.17 11.53 8.17 11.49 8.17C11.49 8.18 11.49 8.19 11.49 8.2C11.41 8.23 11.33 8.26 11.25 8.28C11.25 8.3 11.25 8.31 11.25 8.32C11.22 8.32 11.2 8.32 11.17 8.32C11.17 8.34 11.17 8.35 11.17 8.36C11.14 8.36 11.12 8.36 11.09 8.36C11.09 8.38 11.09 8.39 11.09 8.4C11.01 8.43 10.93 8.46 10.85 8.48C10.84 8.51 10.82 8.54 10.81 8.56C10.73 8.59 10.65 8.62 10.57 8.64C10.56 8.67 10.54 8.7 10.53 8.72C10.48 8.74 10.42 8.75 10.37 8.76C10.36 8.79 10.34 8.82 10.33 8.84C10.28 8.86 10.23 8.87 10.17 8.88C10.17 8.9 10.17 8.91 10.17 8.92C10.13 8.94 10.09 8.95 10.05 8.96C10.04 8.99 10.03 9.02 10.01 9.04C9.99 9.04 9.96 9.04 9.93 9.04C9.91 9.08 9.88 9.12 9.85 9.16C9.83 9.16 9.8 9.16 9.77 9.16C9.76 9.19 9.75 9.22 9.73 9.24C9.71 9.24 9.68 9.24 9.65 9.24C9.63 9.28 9.6 9.32 9.57 9.36C9.55 9.36 9.52 9.36 9.49 9.36C9.47 9.4 9.44 9.44 9.41 9.48C9.39 9.48 9.36 9.48 9.33 9.48C9.29 9.54 9.25 9.59 9.21 9.64C9.19 9.64 9.16 9.64 9.13 9.64C9.07 9.72 9 9.8 8.93 9.89C8.91 9.89 8.88 9.89 8.85 9.89C8.76 9.99 8.67 10.1 8.57 10.2C8.35 10.42 8.12 10.63 7.9 10.84C7.9 10.87 7.9 10.9 7.9 10.93C7.82 10.99 7.74 11.06 7.66 11.13C7.66 11.15 7.66 11.18 7.66 11.21C7.6 11.24 7.55 11.29 7.5 11.33C7.5 11.35 7.5 11.38 7.5 11.41C7.46 11.43 7.42 11.46 7.38 11.49C7.38 11.51 7.38 11.54 7.38 11.57C7.34 11.59 7.3 11.62 7.26 11.65C7.26 11.67 7.26 11.7 7.26 11.73C7.23 11.74 7.2 11.75 7.18 11.77C7.18 11.79 7.18 11.82 7.18 11.85C7.14 11.87 7.1 11.9 7.06 11.93C7.06 11.95 7.06 11.98 7.06 12.01C7.03 12.02 7 12.03 6.98 12.05C6.98 12.07 6.98 12.1 6.98 12.13C6.95 12.14 6.92 12.15 6.9 12.17C6.88 12.22 6.87 12.27 6.86 12.32C6.83 12.34 6.8 12.35 6.78 12.37C6.76 12.42 6.75 12.47 6.74 12.53C6.71 12.54 6.68 12.55 6.66 12.57C6.63 12.65 6.6 12.73 6.58 12.81C6.55 12.82 6.52 12.83 6.5 12.85C6.5 12.87 6.5 12.9 6.5 12.93C6.48 12.93 6.47 12.93 6.46 12.93C6.46 12.95 6.46 12.98 6.46 13.01C6.44 13.01 6.43 13.01 6.42 13.01C6.42 13.03 6.42 13.06 6.42 13.09C6.4 13.09 6.39 13.09 6.38 13.09C6.38 13.11 6.38 13.14 6.38 13.17C6.36 13.17 6.35 13.17 6.34 13.17C6.34 13.19 6.34 13.22 6.34 13.25C6.32 13.25 6.31 13.25 6.3 13.25C6.27 13.33 6.25 13.41 6.22 13.49C6.21 13.49 6.19 13.49 6.18 13.49C6.18 13.53 6.18 13.57 6.18 13.61C6.17 13.61 6.15 13.61 6.14 13.61C6.14 13.63 6.14 13.66 6.14 13.69C6.13 13.69 6.11 13.69 6.1 13.69C6.1 13.71 6.1 13.74 6.1 13.77C6.09 13.77 6.07 13.77 6.06 13.77C6.06 13.79 6.06 13.82 6.06 13.85C6.05 13.85 6.03 13.85 6.02 13.85C6.02 13.89 6.02 13.93 6.02 13.97C6.01 13.97 5.99 13.97 5.98 13.97C5.98 13.99 5.98 14.02 5.98 14.05C5.97 14.05 5.95 14.05 5.94 14.05C5.93 14.13 5.91 14.21 5.9 14.29C5.89 14.29 5.87 14.29 5.86 14.29C5.86 14.31 5.86 14.34 5.86 14.37C5.85 14.37 5.83 14.37 5.82 14.37C5.69 14.85 5.55 15.33 5.42 15.81C5.39 16.05 5.37 16.29 5.34 16.53C5.33 16.53 5.31 16.53 5.3 16.53C5.3 16.63 5.3 16.74 5.3 16.85C5.29 16.85 5.27 16.85 5.26 16.85C5.26 17.02 5.26 17.19 5.26 17.37C5.25 17.37 5.23 17.37 5.22 17.37C5.16 17.57 5.22 18.49 5.26 18.65C5.26 18.82 5.26 18.99 5.26 19.17C5.27 19.17 5.29 19.17 5.3 19.17C5.3 19.27 5.3 19.38 5.3 19.49C5.31 19.49 5.33 19.49 5.34 19.49C5.34 19.58 5.34 19.67 5.34 19.77C5.35 19.77 5.37 19.77 5.38 19.77C5.38 19.83 5.38 19.9 5.38 19.97C5.39 19.97 5.41 19.97 5.42 19.97C5.42 20.05 5.42 20.13 5.42 20.21C5.43 20.21 5.45 20.21 5.46 20.21C5.46 20.26 5.46 20.31 5.46 20.37C5.47 20.37 5.49 20.37 5.5 20.37C5.5 20.43 5.5 20.5 5.5 20.57C5.51 20.57 5.53 20.57 5.54 20.57C5.54 20.62 5.54 20.67 5.54 20.73C5.55 20.73 5.57 20.73 5.58 20.73C5.59 20.82 5.61 20.91 5.62 21.01C5.63 21.01 5.65 21.01 5.66 21.01C5.66 21.05 5.66 21.09 5.66 21.13C5.67 21.13 5.69 21.13 5.7 21.13C5.7 21.18 5.7 21.23 5.7 21.29C5.71 21.29 5.73 21.29 5.74 21.29C5.74 21.33 5.74 21.37 5.74 21.41C5.75 21.41 5.77 21.41 5.78 21.41C5.78 21.45 5.78 21.49 5.78 21.53C5.79 21.53 5.81 21.53 5.82 21.53C5.82 21.57 5.82 21.61 5.82 21.65C5.83 21.65 5.85 21.65 5.86 21.65C5.86 21.67 5.86 21.7 5.86 21.73C5.87 21.73 5.89 21.73 5.9 21.73C5.91 21.81 5.93 21.89 5.94 21.97C5.95 21.97 5.97 21.97 5.98 21.97C5.98 21.99 5.98 22.02 5.98 22.05C5.99 22.05 6.01 22.05 6.02 22.05C6.02 22.09 6.02 22.13 6.02 22.17C6.03 22.17 6.05 22.17 6.06 22.17C6.07 22.22 6.09 22.27 6.1 22.33C6.11 22.33 6.13 22.33 6.14 22.33C6.14 22.35 6.14 22.38 6.14 22.41C6.15 22.41 6.17 22.41 6.18 22.41C6.18 22.45 6.18 22.49 6.18 22.53C6.19 22.53 6.21 22.53 6.22 22.53C6.25 22.61 6.27 22.69 6.3 22.77C6.31 22.77 6.32 22.77 6.34 22.77C6.34 22.79 6.34 22.82 6.34 22.85C6.35 22.85 6.36 22.85 6.38 22.85C6.38 22.87 6.38 22.9 6.38 22.93C6.39 22.93 6.4 22.93 6.42 22.93C6.44 23.01 6.47 23.09 6.5 23.17C6.52 23.18 6.55 23.19 6.58 23.21C6.6 23.29 6.63 23.37 6.66 23.45C6.68 23.46 6.71 23.47 6.74 23.49C6.75 23.54 6.76 23.59 6.78 23.65C6.8 23.66 6.83 23.67 6.86 23.69C6.87 23.74 6.88 23.79 6.9 23.85C6.92 23.86 6.95 23.87 6.98 23.89C6.98 23.91 6.98 23.94 6.98 23.97C6.99 23.97 7 23.97 7.02 23.97C7.03 24.01 7.04 24.05 7.06 24.09C7.08 24.1 7.11 24.11 7.14 24.13C7.14 24.15 7.14 24.18 7.14 24.21C7.18 24.23 7.22 24.26 7.26 24.29C7.26 24.31 7.26 24.34 7.26 24.37C7.3 24.39 7.34 24.42 7.38 24.45C7.38 24.47 7.38 24.5 7.38 24.53C7.42 24.55 7.46 24.58 7.5 24.61C7.5 24.63 7.5 24.66 7.5 24.69C7.55 24.73 7.6 24.77 7.66 24.81C7.66 24.83 7.66 24.86 7.66 24.89C7.74 24.95 7.82 25.02 7.9 25.09C7.9 25.11 7.9 25.14 7.9 25.17C8.12 25.38 8.35 25.59 8.57 25.81C8.67 25.91 8.76 26.02 8.85 26.13C8.88 26.13 8.91 26.13 8.93 26.13C9 26.21 9.07 26.29 9.13 26.37C9.16 26.37 9.19 26.37 9.21 26.37C9.25 26.42 9.29 26.47 9.33 26.53C9.36 26.53 9.39 26.53 9.41 26.53C9.44 26.57 9.47 26.61 9.49 26.65C9.52 26.65 9.55 26.65 9.57 26.65C9.6 26.69 9.63 26.73 9.65 26.77C9.68 26.77 9.71 26.77 9.73 26.77C9.76 26.81 9.79 26.85 9.81 26.89C9.84 26.89 9.87 26.89 9.89 26.89C9.91 26.91 9.92 26.94 9.93 26.97C9.96 26.97 9.99 26.97 10.01 26.97C10.03 26.99 10.04 27.02 10.05 27.05C10.09 27.06 10.13 27.07 10.17 27.09C10.17 27.1 10.17 27.11 10.17 27.13C10.23 27.14 10.28 27.15 10.33 27.17C10.34 27.19 10.36 27.22 10.37 27.25C10.42 27.26 10.48 27.27 10.53 27.29C10.54 27.31 10.56 27.34 10.57 27.37C10.65 27.39 10.73 27.42 10.81 27.45C10.82 27.47 10.84 27.5 10.85 27.53C10.88 27.53 10.9 27.53 10.93 27.53C10.93 27.54 10.93 27.55 10.93 27.57C10.96 27.57 10.98 27.57 11.01 27.57C11.01 27.58 11.01 27.59 11.01 27.61C11.04 27.61 11.06 27.61 11.09 27.61C11.09 27.62 11.09 27.63 11.09 27.65C11.12 27.65 11.14 27.65 11.17 27.65C11.17 27.66 11.17 27.67 11.17 27.69C11.2 27.69 11.22 27.69 11.25 27.69C11.25 27.7 11.25 27.71 11.25 27.73C11.28 27.73 11.3 27.73 11.33 27.73C11.33 27.74 11.33 27.75 11.33 27.77C11.41 27.79 11.49 27.82 11.57 27.85C11.57 27.86 11.57 27.87 11.57 27.89C11.64 27.9 11.7 27.91 11.77 27.93C11.77 27.94 11.77 27.95 11.77 27.97C11.8 27.97 11.82 27.97 11.85 27.97C11.85 27.98 11.85 27.99 11.85 28.01C11.89 28.01 11.93 28.01 11.97 28.01C11.97 28.02 11.97 28.03 11.97 28.05C12 28.05 12.02 28.05 12.05 28.05C12.05 28.06 12.05 28.07 12.05 28.09C12.13 28.1 12.21 28.11 12.29 28.13C12.29 28.14 12.29 28.15 12.29 28.17C12.32 28.17 12.34 28.17 12.37 28.17C12.37 28.18 12.37 28.19 12.37 28.21C12.49 28.23 12.61 28.26 12.73 28.29C12.73 28.3 12.73 28.31 12.73 28.33C12.78 28.33 12.83 28.33 12.89 28.33C12.89 28.34 12.89 28.35 12.89 28.37C12.93 28.37 12.97 28.37 13.01 28.37C13.01 28.38 13.01 28.39 13.01 28.41C13.1 28.42 13.19 28.43 13.29 28.45C13.29 28.46 13.29 28.47 13.29 28.49C13.34 28.49 13.39 28.49 13.45 28.49C13.45 28.5 13.45 28.51 13.45 28.53C13.57 28.54 13.69 28.55 13.81 28.57C13.81 28.58 13.81 28.59 13.81 28.61C13.89 28.61 13.97 28.61 14.05 28.61C14.05 28.62 14.05 28.63 14.05 28.65C14.11 28.65 14.18 28.65 14.25 28.65C14.25 28.66 14.25 28.67 14.25 28.69C14.34 28.69 14.43 28.69 14.52 28.69C14.52 28.7 14.52 28.71 14.52 28.73C14.8 28.74 15.08 28.75 15.36 28.77C15.36 28.78 15.36 28.79 15.36 28.81C15.57 28.86 16.49 28.81 16.64 28.77C16.92 28.75 17.2 28.74 17.48 28.73C17.48 28.71 17.48 28.7 17.48 28.69C17.57 28.69 17.67 28.69 17.76 28.69C17.76 28.67 17.76 28.66 17.76 28.65C17.83 28.65 17.89 28.65 17.96 28.65C17.96 28.63 17.96 28.62 17.96 28.61C18.04 28.61 18.12 28.61 18.2 28.61C18.2 28.59 18.2 28.58 18.2 28.57C18.25 28.57 18.31 28.57 18.36 28.57C18.36 28.55 18.36 28.54 18.36 28.53C18.48 28.51 18.6 28.5 18.72 28.49C18.72 28.47 18.72 28.46 18.72 28.45C18.76 28.45 18.8 28.45 18.84 28.45C18.84 28.43 18.84 28.42 18.84 28.41C18.89 28.41 18.94 28.41 19 28.41C19 28.39 19 28.38 19 28.37C19.04 28.37 19.08 28.37 19.12 28.37C19.12 28.35 19.12 28.34 19.12 28.33C19.17 28.33 19.22 28.33 19.28 28.33C19.28 28.31 19.28 28.3 19.28 28.29C19.32 28.29 19.36 28.29 19.4 28.29C19.4 28.27 19.4 28.26 19.4 28.25C19.44 28.25 19.48 28.25 19.52 28.25C19.52 28.23 19.52 28.22 19.52 28.21C19.56 28.21 19.6 28.21 19.64 28.21C19.64 28.19 19.64 28.18 19.64 28.17C19.66 28.17 19.69 28.17 19.72 28.17C19.72 28.15 19.72 28.14 19.72 28.13C19.8 28.11 19.88 28.1 19.96 28.09C19.96 28.07 19.96 28.06 19.96 28.05C19.98 28.05 20.01 28.05 20.04 28.05C20.04 28.03 20.04 28.02 20.04 28.01C20.08 28.01 20.12 28.01 20.16 28.01C20.16 27.99 20.16 27.98 20.16 27.97C20.21 27.95 20.26 27.94 20.32 27.93C20.32 27.91 20.32 27.9 20.32 27.89C20.34 27.89 20.37 27.89 20.4 27.89C20.4 27.87 20.4 27.86 20.4 27.85C20.44 27.85 20.48 27.85 20.52 27.85C20.52 27.83 20.52 27.82 20.52 27.81C20.59 27.78 20.67 27.75 20.75 27.73C20.75 27.71 20.75 27.7 20.75 27.69C20.78 27.69 20.81 27.69 20.83 27.69C20.83 27.67 20.83 27.66 20.83 27.65C20.86 27.65 20.89 27.65 20.91 27.65C20.91 27.63 20.91 27.62 20.91 27.61C20.99 27.58 21.07 27.55 21.15 27.53C21.17 27.5 21.18 27.47 21.19 27.45C21.27 27.42 21.35 27.39 21.43 27.37C21.45 27.34 21.46 27.31 21.47 27.29C21.53 27.27 21.58 27.26 21.63 27.25C21.65 27.22 21.66 27.19 21.67 27.17C21.73 27.15 21.78 27.14 21.83 27.13C21.85 27.1 21.86 27.07 21.87 27.05C21.9 27.05 21.93 27.05 21.95 27.05C21.95 27.03 21.95 27.02 21.95 27.01C21.99 26.99 22.03 26.98 22.07 26.97C22.09 26.94 22.1 26.91 22.11 26.89C22.14 26.89 22.17 26.89 22.19 26.89C22.21 26.86 22.22 26.83 22.23 26.81C22.27 26.79 22.31 26.78 22.35 26.77C22.38 26.73 22.41 26.69 22.43 26.65C22.46 26.65 22.49 26.65 22.51 26.65C22.54 26.61 22.57 26.57 22.59 26.53C22.62 26.53 22.64 26.53 22.67 26.53C22.71 26.47 22.75 26.42 22.79 26.37C22.82 26.37 22.84 26.37 22.87 26.37C22.94 26.29 23 26.21 23.07 26.13C23.1 26.13 23.12 26.13 23.15 26.13C23.28 25.98 23.42 25.83 23.55 25.69C23.74 25.51 23.92 25.34 24.11 25.17C24.11 25.14 24.11 25.11 24.11 25.09C24.19 25.02 24.27 24.95 24.35 24.89C24.35 24.86 24.35 24.83 24.35 24.81C24.4 24.77 24.46 24.73 24.51 24.69C24.51 24.66 24.51 24.63 24.51 24.61C24.55 24.58 24.59 24.55 24.63 24.53C24.63 24.5 24.63 24.47 24.63 24.45C24.67 24.42 24.71 24.39 24.75 24.37C24.76 24.33 24.77 24.29 24.79 24.25C24.81 24.23 24.84 24.22 24.87 24.21C24.87 24.18 24.87 24.15 24.87 24.13C24.89 24.11 24.92 24.1 24.95 24.09C24.96 24.05 24.97 24.01 24.99 23.97C25 23.97 25.01 23.97 25.03 23.97C25.03 23.94 25.03 23.91 25.03 23.89C25.05 23.87 25.08 23.86 25.11 23.85C25.12 23.79 25.13 23.74 25.15 23.69C25.17 23.67 25.2 23.66 25.23 23.65C25.24 23.59 25.25 23.54 25.27 23.49C25.29 23.47 25.32 23.46 25.35 23.45C25.37 23.37 25.4 23.29 25.43 23.21C25.45 23.19 25.48 23.18 25.51 23.17C25.51 23.14 25.51 23.11 25.51 23.09C25.52 23.09 25.53 23.09 25.55 23.09C25.55 23.06 25.55 23.03 25.55 23.01C25.56 23.01 25.57 23.01 25.59 23.01C25.59 22.98 25.59 22.95 25.59 22.93C25.6 22.93 25.61 22.93 25.63 22.93C25.63 22.9 25.63 22.87 25.63 22.85C25.64 22.85 25.65 22.85 25.67 22.85C25.67 22.82 25.67 22.79 25.67 22.77C25.68 22.77 25.69 22.77 25.71 22.77C25.71 22.74 25.71 22.71 25.71 22.69C25.72 22.69 25.73 22.69 25.75 22.69C25.77 22.61 25.8 22.53 25.83 22.45C25.84 22.45 25.85 22.45 25.87 22.45C25.87 22.41 25.87 22.37 25.87 22.33C25.88 22.33 25.89 22.33 25.91 22.33C25.92 22.27 25.93 22.22 25.95 22.17C25.96 22.17 25.97 22.17 25.99 22.17C26.15 21.69 26.31 21.21 26.47 20.73C26.48 20.61 26.49 20.49 26.51 20.37C26.52 20.37 26.53 20.37 26.55 20.37C26.55 20.31 26.55 20.26 26.55 20.21C26.56 20.21 26.57 20.21 26.59 20.21C26.59 20.13 26.59 20.05 26.59 19.97C26.6 19.97 26.61 19.97 26.63 19.97C26.63 19.9 26.63 19.83 26.63 19.77C26.64 19.77 26.65 19.77 26.66 19.77C26.69 19.53 26.72 19.29 26.74 19.05C26.74 18.91 26.74 18.78 26.74 18.65C26.76 18.65 26.77 18.65 26.78 18.65C26.84 18.44 26.79 17.52 26.74 17.37C26.73 17.09 26.72 16.81 26.7 16.53C26.69 16.53 26.68 16.53 26.66 16.53C26.66 16.43 26.66 16.34 26.66 16.25C26.65 16.25 26.64 16.25 26.63 16.25C26.63 16.18 26.63 16.11 26.63 16.05C26.61 16.05 26.6 16.05 26.59 16.05C26.59 15.97 26.59 15.89 26.59 15.81C26.57 15.81 26.56 15.81 26.55 15.81C26.53 15.69 26.52 15.57 26.51 15.45C26.49 15.45 26.48 15.45 26.47 15.45C26.47 15.39 26.47 15.34 26.47 15.29C26.45 15.29 26.44 15.29 26.43 15.29C26.41 15.19 26.4 15.1 26.39 15.01C26.37 15.01 26.36 15.01 26.35 15.01C26.35 14.97 26.35 14.93 26.35 14.89C26.33 14.89 26.32 14.89 26.31 14.89C26.31 14.83 26.31 14.78 26.31 14.73C26.29 14.73 26.28 14.73 26.27 14.73C26.27 14.69 26.27 14.65 26.27 14.61C26.25 14.61 26.24 14.61 26.23 14.61C26.23 14.57 26.23 14.53 26.23 14.49C26.21 14.49 26.2 14.49 26.19 14.49C26.19 14.45 26.19 14.41 26.19 14.37C26.17 14.37 26.16 14.37 26.15 14.37C26.15 14.34 26.15 14.31 26.15 14.29C26.13 14.29 26.12 14.29 26.11 14.29C26.09 14.21 26.08 14.13 26.07 14.05C26.05 14.05 26.04 14.05 26.03 14.05C25.99 13.93 25.95 13.81 25.91 13.69C26.74 13.69 27.82 13.78 28.46 13.57C28.64 13.54 28.81 13.51 28.98 13.49C28.98 13.47 28.98 13.46 28.98 13.45C29.02 13.43 29.06 13.42 29.1 13.41C29.1 13.39 29.1 13.38 29.1 13.37C29.18 13.35 29.15 13.39 29.18 13.41C29.32 13.53 29.31 13.81 29.38 14.01C29.56 14.46 29.63 15.03 29.78 15.53C29.79 15.7 29.81 15.87 29.82 16.05C29.83 16.05 29.85 16.05 29.86 16.05C29.86 16.14 29.86 16.23 29.86 16.33C29.87 16.33 29.89 16.33 29.9 16.33C29.9 16.46 29.9 16.59 29.9 16.73C29.91 16.73 29.93 16.73 29.94 16.73C29.94 16.9 29.94 17.07 29.94 17.25C30.02 17.55 30.03 18.46 29.94 18.77C29.94 18.94 29.94 19.11 29.94 19.29C29.93 19.29 29.91 19.29 29.9 19.29C29.9 19.42 29.9 19.55 29.9 19.69C29.89 19.69 29.87 19.69 29.86 19.69C29.86 19.78 29.86 19.87 29.86 19.97C29.85 19.97 29.83 19.97 29.82 19.97C29.82 20.06 29.82 20.15 29.82 20.25C29.76 20.43 29.72 20.7 29.66 20.89C29.66 20.95 29.66 21.02 29.66 21.09C29.65 21.09 29.63 21.09 29.62 21.09C29.62 21.14 29.62 21.19 29.62 21.25C29.61 21.25 29.59 21.25 29.58 21.25C29.58 21.3 29.58 21.35 29.58 21.41C29.57 21.41 29.55 21.41 29.54 21.41C29.54 21.46 29.54 21.51 29.54 21.57C29.53 21.57 29.51 21.57 29.5 21.57C29.5 21.62 29.5 21.67 29.5 21.73C29.49 21.73 29.47 21.73 29.46 21.73C29.46 21.78 29.46 21.83 29.46 21.89C29.45 21.89 29.43 21.89 29.42 21.89C29.42 21.93 29.42 21.97 29.42 22.01C29.41 22.01 29.39 22.01 29.38 22.01C29.38 22.05 29.38 22.09 29.38 22.13C29.37 22.13 29.35 22.13 29.34 22.13C29.34 22.17 29.34 22.21 29.34 22.25C29.33 22.25 29.31 22.25 29.3 22.25C29.29 22.34 29.27 22.43 29.26 22.53C29.25 22.53 29.23 22.53 29.22 22.53C29.22 22.55 29.22 22.58 29.22 22.61C29.21 22.61 29.19 22.61 29.18 22.61C29.15 22.73 29.13 22.85 29.1 22.97C29.09 22.97 29.07 22.97 29.06 22.97C29.06 22.99 29.06 23.02 29.06 23.05C29.05 23.05 29.03 23.05 29.02 23.05C29.02 23.09 29.02 23.13 29.02 23.17C29.01 23.17 28.99 23.17 28.98 23.17C28.97 23.23 28.95 23.3 28.94 23.37C28.93 23.37 28.91 23.37 28.9 23.37C28.9 23.39 28.9 23.42 28.9 23.45C28.89 23.45 28.87 23.45 28.86 23.45C28.86 23.49 28.86 23.53 28.86 23.57C28.85 23.57 28.83 23.57 28.82 23.57C28.79 23.65 28.77 23.73 28.74 23.81C28.73 23.81 28.72 23.81 28.7 23.81C28.7 23.83 28.7 23.86 28.7 23.89C28.69 23.89 28.68 23.89 28.66 23.89C28.66 23.93 28.66 23.97 28.66 24.01C28.65 24.01 28.64 24.01 28.62 24.01C28.6 24.09 28.57 24.17 28.54 24.25C28.53 24.25 28.52 24.25 28.5 24.25C28.5 24.27 28.5 24.3 28.5 24.33C28.49 24.33 28.48 24.33 28.46 24.33C28.44 24.41 28.41 24.49 28.38 24.57C28.36 24.58 28.33 24.59 28.3 24.61C28.3 24.63 28.3 24.66 28.3 24.69C28.29 24.69 28.28 24.69 28.26 24.69C28.26 24.71 28.26 24.74 28.26 24.77C28.25 24.77 28.24 24.77 28.22 24.77C28.22 24.79 28.22 24.82 28.22 24.85C28.21 24.85 28.2 24.85 28.18 24.85C28.18 24.87 28.18 24.9 28.18 24.93C28.16 24.94 28.13 24.95 28.1 24.97C28.08 25.05 28.05 25.13 28.02 25.21C28 25.22 27.97 25.23 27.94 25.25C27.94 25.27 27.94 25.3 27.94 25.33C27.92 25.34 27.89 25.35 27.86 25.37C27.85 25.42 27.84 25.47 27.82 25.53C27.8 25.54 27.77 25.55 27.74 25.57C27.74 25.59 27.74 25.62 27.74 25.65C27.72 25.66 27.69 25.67 27.66 25.69C27.66 25.71 27.66 25.74 27.66 25.77C27.64 25.78 27.61 25.79 27.58 25.81C27.58 25.83 27.58 25.86 27.58 25.89C27.57 25.89 27.56 25.89 27.54 25.89C27.53 25.93 27.52 25.97 27.5 26.01C27.48 26.02 27.45 26.03 27.42 26.05C27.42 26.07 27.42 26.1 27.42 26.13C27.38 26.15 27.34 26.18 27.3 26.21C27.3 26.23 27.3 26.26 27.3 26.29C27.26 26.31 27.22 26.34 27.18 26.37C27.18 26.39 27.18 26.42 27.18 26.45C27.14 26.47 27.1 26.5 27.06 26.53C27.06 26.55 27.06 26.58 27.06 26.61C27.01 26.65 26.96 26.69 26.9 26.73C26.9 26.75 26.9 26.78 26.9 26.81C26.85 26.85 26.8 26.89 26.74 26.93C26.43 27.37 26.08 27.67 25.71 28.05C25.57 28.19 25.44 28.34 25.31 28.49C25.28 28.49 25.25 28.49 25.23 28.49C25.16 28.57 25.09 28.65 25.03 28.73C25 28.73 24.97 28.73 24.95 28.73C24.89 28.79 24.84 28.86 24.79 28.93C24.76 28.93 24.73 28.93 24.71 28.93C24.67 28.98 24.63 29.03 24.59 29.09C24.56 29.09 24.54 29.09 24.51 29.09C24.48 29.13 24.46 29.17 24.43 29.21C24.4 29.21 24.38 29.21 24.35 29.21C24.32 29.25 24.3 29.29 24.27 29.33C24.24 29.33 24.22 29.33 24.19 29.33C24.16 29.37 24.14 29.41 24.11 29.45C24.08 29.45 24.06 29.45 24.03 29.45C24.02 29.47 24 29.5 23.99 29.53C23.95 29.54 23.91 29.55 23.87 29.57C23.87 29.58 23.87 29.59 23.87 29.61C23.84 29.61 23.82 29.61 23.79 29.61C23.78 29.63 23.76 29.66 23.75 29.69C23.72 29.69 23.7 29.69 23.67 29.69C23.66 29.71 23.64 29.74 23.63 29.77C23.6 29.77 23.58 29.77 23.55 29.77C23.54 29.79 23.52 29.82 23.51 29.85C23.46 29.86 23.4 29.87 23.35 29.89C23.34 29.91 23.32 29.94 23.31 29.97C23.27 29.98 23.23 29.99 23.19 30.01C23.19 30.02 23.19 30.03 23.19 30.05C23.16 30.05 23.14 30.05 23.11 30.05C23.11 30.06 23.11 30.07 23.11 30.09C23.08 30.09 23.06 30.09 23.03 30.09C23.03 30.1 23.03 30.11 23.03 30.13C23 30.13 22.98 30.13 22.95 30.13C22.94 30.15 22.92 30.18 22.91 30.21C22.88 30.21 22.86 30.21 22.83 30.21C22.83 30.22 22.83 30.23 22.83 30.25C22.8 30.25 22.78 30.25 22.75 30.25C22.75 30.26 22.75 30.27 22.75 30.29C22.72 30.29 22.7 30.29 22.67 30.29C22.67 30.3 22.67 30.31 22.67 30.33C22.64 30.33 22.62 30.33 22.59 30.33C22.58 30.35 22.57 30.38 22.55 30.41C22.47 30.43 22.39 30.46 22.31 30.49C22.31 30.5 22.31 30.51 22.31 30.53C22.29 30.53 22.26 30.53 22.23 30.53C22.23 30.54 22.23 30.55 22.23 30.57C22.15 30.59 22.07 30.62 21.99 30.65C21.99 30.66 21.99 30.67 21.99 30.69C21.95 30.69 21.91 30.69 21.87 30.69C21.87 30.7 21.87 30.71 21.87 30.73C21.85 30.73 21.82 30.73 21.79 30.73C21.79 30.74 21.79 30.75 21.79 30.77C21.71 30.79 21.63 30.82 21.55 30.85C21.55 30.86 21.55 30.87 21.55 30.89C21.51 30.89 21.47 30.89 21.43 30.89C21.43 30.9 21.43 30.91 21.43 30.93C21.41 30.93 21.38 30.93 21.35 30.93C21.35 30.94 21.35 30.95 21.35 30.97C21.31 30.97 21.27 30.97 21.23 30.97C21.23 30.98 21.23 30.99 21.23 31.01C21.21 31.01 21.18 31.01 21.15 31.01C21.15 31.02 21.15 31.03 21.15 31.05C21.11 31.05 21.07 31.05 21.03 31.05C21.03 31.06 21.03 31.07 21.03 31.09C21.01 31.09 20.98 31.09 20.95 31.09C20.95 31.1 20.95 31.11 20.95 31.13C20.83 31.15 20.71 31.18 20.59 31.21C20.59 31.22 20.59 31.23 20.59 31.25C20.57 31.25 20.54 31.25 20.52 31.25C20.52 31.26 20.52 31.27 20.52 31.29C20.42 31.3 20.33 31.31 20.24 31.33C20.24 31.34 20.24 31.35 20.24 31.37C20.2 31.37 20.16 31.37 20.12 31.37C20.12 31.38 20.12 31.39 20.12 31.41C20.08 31.41 20.04 31.41 20 31.41C20 31.42 20 31.43 20 31.45C19.96 31.45 19.92 31.45 19.88 31.45C19.88 31.46 19.88 31.47 19.88 31.49C19.82 31.49 19.77 31.49 19.72 31.49C19.72 31.5 19.72 31.51 19.72 31.53C19.66 31.53 19.61 31.53 19.56 31.53C19.56 31.54 19.56 31.55 19.56 31.57C19.5 31.57 19.45 31.57 19.4 31.57C19.4 31.58 19.4 31.59 19.4 31.61C19.34 31.61 19.29 31.61 19.24 31.61C19.24 31.62 19.24 31.63 19.24 31.65C19.18 31.65 19.13 31.65 19.08 31.65C19.08 31.66 19.08 31.67 19.08 31.69C19.01 31.69 18.94 31.69 18.88 31.69C18.88 31.7 18.88 31.71 18.88 31.73C18.81 31.73 18.74 31.73 18.68 31.73C18.68 31.74 18.68 31.75 18.68 31.77C18.61 31.77 18.54 31.77 18.48 31.77C18.48 31.78 18.48 31.79 18.48 31.81C18.4 31.81 18.32 31.81 18.24 31.81C18.24 31.82 18.24 31.83 18.24 31.85C18.05 31.86 17.87 31.87 17.68 31.89C17.68 31.9 17.68 31.91 17.68 31.93C17.15 31.95 16.61 31.98 16.08 32.01C15.62 31.99 15.15 31.98 14.68 31.97C14.68 31.95 14.68 31.94 14.68 31.93C14.56 31.93 14.44 31.93 14.33 31.93C14.33 31.91 14.33 31.9 14.33 31.89C14.22 31.89 14.11 31.89 14.01 31.89C13.38 31.75 12.75 31.62 12.13 31.49C11.18 31.15 10.21 30.83 9.41 30.33C9.39 30.33 9.36 30.33 9.33 30.33C9.33 30.31 9.33 30.3 9.33 30.29C9.31 30.29 9.28 30.29 9.25 30.29C9.25 30.27 9.25 30.26 9.25 30.25C9.23 30.25 9.2 30.25 9.17 30.25C9.17 30.23 9.17 30.22 9.17 30.21C9.15 30.21 9.12 30.21 9.09 30.21C9.08 30.18 9.07 30.15 9.05 30.13C8.97 30.1 8.89 30.07 8.81 30.05C8.81 30.03 8.81 30.02 8.81 30.01C8.77 29.99 8.73 29.98 8.69 29.97C8.68 29.94 8.67 29.91 8.65 29.89C8.6 29.87 8.55 29.86 8.49 29.85C8.49 29.83 8.49 29.82 8.49 29.81C8.45 29.79 8.41 29.78 8.37 29.77C8.36 29.74 8.35 29.71 8.33 29.69C8.31 29.69 8.28 29.69 8.26 29.69C8.24 29.66 8.23 29.63 8.22 29.61C8.19 29.61 8.16 29.61 8.14 29.61C8.14 29.59 8.14 29.58 8.14 29.57C8.1 29.55 8.06 29.54 8.02 29.53C8 29.5 7.99 29.47 7.98 29.45C7.95 29.45 7.92 29.45 7.9 29.45C7.87 29.41 7.84 29.37 7.82 29.33C7.79 29.33 7.76 29.33 7.74 29.33C7.71 29.29 7.68 29.25 7.66 29.21C7.63 29.21 7.6 29.21 7.58 29.21C7.55 29.17 7.52 29.13 7.5 29.09C7.47 29.09 7.44 29.09 7.42 29.09C7.38 29.03 7.34 28.98 7.3 28.93C7.27 28.93 7.24 28.93 7.22 28.93C7.19 28.89 7.16 28.85 7.14 28.81C7.12 28.81 7.11 28.81 7.1 28.81C7.08 28.78 7.07 28.75 7.06 28.73C7.03 28.73 7 28.73 6.98 28.73C6.91 28.65 6.84 28.57 6.78 28.49C6.75 28.49 6.72 28.49 6.7 28.49C6.54 28.31 6.38 28.14 6.22 27.97C5.99 27.75 5.77 27.54 5.54 27.33C5.54 27.3 5.54 27.27 5.54 27.25C5.46 27.18 5.38 27.11 5.3 27.05C5.3 27.02 5.3 26.99 5.3 26.97C5.23 26.91 5.17 26.86 5.1 26.81C5.1 26.78 5.1 26.75 5.1 26.73C5.05 26.69 4.99 26.65 4.94 26.61C4.94 26.58 4.94 26.55 4.94 26.53C4.9 26.5 4.86 26.47 4.82 26.45C4.82 26.42 4.82 26.39 4.82 26.37C4.78 26.34 4.74 26.31 4.7 26.29C4.7 26.26 4.7 26.23 4.7 26.21C4.66 26.18 4.62 26.15 4.58 26.13C4.58 26.1 4.58 26.07 4.58 26.05C4.55 26.03 4.53 26.02 4.5 26.01C4.49 25.97 4.47 25.93 4.46 25.89C4.45 25.89 4.43 25.89 4.42 25.89C4.42 25.86 4.42 25.83 4.42 25.81C4.39 25.79 4.37 25.78 4.34 25.77C4.34 25.74 4.34 25.71 4.34 25.69C4.31 25.67 4.29 25.66 4.26 25.65C4.26 25.62 4.26 25.59 4.26 25.57C4.23 25.55 4.21 25.54 4.18 25.53C4.17 25.47 4.16 25.42 4.14 25.37C4.12 25.35 4.09 25.34 4.06 25.33C4.05 25.29 4.04 25.25 4.02 25.21C4.01 25.21 4 25.21 3.98 25.21C3.96 25.13 3.93 25.05 3.9 24.97C3.88 24.95 3.85 24.94 3.82 24.93C3.82 24.9 3.82 24.87 3.82 24.85C3.81 24.85 3.8 24.85 3.78 24.85C3.78 24.82 3.78 24.79 3.78 24.77C3.77 24.77 3.76 24.77 3.74 24.77C3.74 24.74 3.74 24.71 3.74 24.69C3.73 24.69 3.72 24.69 3.7 24.69C3.7 24.66 3.7 24.63 3.7 24.61C3.21 23.81 2.88 22.84 2.54 21.89C2.53 21.78 2.52 21.67 2.5 21.57C2.49 21.57 2.48 21.57 2.46 21.57C2.46 21.51 2.46 21.46 2.46 21.41C2.45 21.41 2.44 21.41 2.42 21.41C2.42 21.35 2.42 21.3 2.42 21.25C2.41 21.25 2.4 21.25 2.38 21.25C2.38 21.19 2.38 21.14 2.38 21.09C2.37 21.09 2.36 21.09 2.34 21.09C2.34 21.02 2.34 20.95 2.34 20.89C2.33 20.89 2.32 20.89 2.3 20.89C2.29 20.75 2.28 20.62 2.26 20.49C2.25 20.49 2.24 20.49 2.22 20.49C2.22 20.41 2.22 20.33 2.22 20.25C2.21 20.25 2.2 20.25 2.18 20.25C2.18 20.15 2.18 20.06 2.18 19.97C2.17 19.97 2.16 19.97 2.14 19.97C2.13 19.74 2.12 19.51 2.11 19.29C2.09 19.29 2.08 19.29 2.07 19.29C2.07 19.11 2.07 18.94 2.07 18.77C1.98 18.46 1.98 17.55 2.07 17.25C2.07 17.07 2.07 16.9 2.07 16.73C2.08 16.73 2.09 16.73 2.11 16.73C2.12 16.5 2.13 16.27 2.14 16.05C2.16 16.05 2.17 16.05 2.18 16.05C2.18 15.95 2.18 15.86 2.18 15.77C2.24 15.58 2.29 15.31 2.34 15.13C2.34 15.06 2.34 14.99 2.34 14.93C2.36 14.93 2.37 14.93 2.38 14.93C2.38 14.87 2.38 14.82 2.38 14.77C2.4 14.77 2.41 14.77 2.42 14.77C2.42 14.71 2.42 14.66 2.42 14.61C2.44 14.61 2.45 14.61 2.46 14.61C2.46 14.55 2.46 14.5 2.46 14.45C2.48 14.45 2.49 14.45 2.5 14.45C2.5 14.39 2.5 14.34 2.5 14.29C2.52 14.29 2.53 14.29 2.54 14.29C2.54 14.23 2.54 14.18 2.54 14.13C2.56 14.13 2.57 14.13 2.58 14.13C2.58 14.09 2.58 14.05 2.58 14.01C2.6 14.01 2.61 14.01 2.62 14.01C2.62 13.97 2.62 13.93 2.62 13.89C2.64 13.89 2.65 13.89 2.66 13.89C2.66 13.85 2.66 13.81 2.66 13.77C2.68 13.77 2.69 13.77 2.7 13.77C2.7 13.71 2.7 13.66 2.7 13.61C2.72 13.61 2.73 13.61 2.74 13.61C2.74 13.57 2.74 13.53 2.74 13.49C2.76 13.49 2.77 13.49 2.78 13.49C2.78 13.46 2.78 13.43 2.78 13.41C2.8 13.41 2.81 13.41 2.82 13.41C2.85 13.29 2.88 13.17 2.9 13.05C2.92 13.05 2.93 13.05 2.94 13.05C2.94 13.02 2.94 12.99 2.94 12.96C2.96 12.96 2.97 12.96 2.98 12.96C2.98 12.93 2.98 12.89 2.98 12.85C3 12.85 3.01 12.85 3.02 12.85C3.02 12.82 3.02 12.79 3.02 12.77C3.04 12.77 3.05 12.77 3.06 12.77C3.06 12.73 3.06 12.69 3.06 12.65C3.08 12.65 3.09 12.65 3.1 12.65C3.1 12.62 3.1 12.59 3.1 12.57C3.12 12.57 3.13 12.57 3.14 12.57C3.14 12.53 3.14 12.49 3.14 12.45C3.16 12.45 3.17 12.45 3.18 12.45C3.21 12.37 3.24 12.29 3.26 12.21C3.28 12.21 3.29 12.21 3.3 12.21C3.3 12.18 3.3 12.15 3.3 12.13C3.32 12.13 3.33 12.13 3.34 12.13C3.34 12.09 3.34 12.05 3.34 12.01C3.36 12.01 3.37 12.01 3.38 12.01C3.41 11.93 3.44 11.85 3.46 11.77C3.48 11.77 3.49 11.77 3.5 11.77C3.5 11.74 3.5 11.71 3.5 11.69C3.52 11.69 3.53 11.69 3.54 11.69C3.57 11.61 3.6 11.53 3.62 11.45C3.65 11.43 3.68 11.42 3.7 11.41C3.7 11.38 3.7 11.35 3.7 11.33C3.72 11.33 3.73 11.33 3.74 11.33C3.74 11.3 3.74 11.27 3.74 11.24C3.76 11.24 3.77 11.24 3.78 11.24C3.78 11.22 3.78 11.19 3.78 11.17C3.8 11.17 3.81 11.17 3.82 11.17C3.82 11.14 3.82 11.11 3.82 11.08C3.85 11.07 3.88 11.06 3.9 11.05C3.93 10.97 3.96 10.88 3.98 10.81C4 10.81 4.01 10.81 4.02 10.81C4.04 10.77 4.05 10.72 4.06 10.68C4.09 10.67 4.12 10.66 4.14 10.64C4.16 10.59 4.17 10.54 4.18 10.48C4.19 10.48 4.21 10.48 4.22 10.48C4.23 10.45 4.25 10.41 4.26 10.36C4.29 10.35 4.31 10.34 4.34 10.32C4.34 10.3 4.34 10.27 4.34 10.24C4.35 10.24 4.37 10.24 4.38 10.24C4.39 10.2 4.41 10.16 4.42 10.13C4.45 10.11 4.47 10.1 4.5 10.08C4.5 10.06 4.5 10.03 4.5 10C4.54 9.98 4.58 9.95 4.62 9.92C4.62 9.9 4.62 9.87 4.62 9.84C4.65 9.83 4.67 9.82 4.7 9.8C4.7 9.78 4.7 9.75 4.7 9.72C4.74 9.7 4.78 9.67 4.82 9.64C4.82 9.62 4.82 9.59 4.82 9.56C4.86 9.54 4.9 9.51 4.94 9.48C4.94 9.46 4.94 9.43 4.94 9.4C4.99 9.36 5.05 9.32 5.1 9.28C5.1 9.26 5.1 9.23 5.1 9.2C5.14 9.18 5.18 9.15 5.22 9.12C5.22 9.11 5.22 9.1 5.22 9.08C5.25 9.07 5.27 9.06 5.3 9.04C5.3 9.02 5.3 8.99 5.3 8.96C5.38 8.9 5.46 8.83 5.54 8.76C5.54 8.74 5.54 8.71 5.54 8.68C5.74 8.5 5.94 8.31 6.14 8.12C6.32 7.92 6.51 7.72 6.7 7.52C6.72 7.52 6.75 7.52 6.78 7.52C6.84 7.44 6.91 7.36 6.98 7.28C7 7.28 7.03 7.28 7.06 7.28C7.11 7.22 7.16 7.15 7.22 7.08C7.24 7.08 7.27 7.08 7.3 7.08C7.34 7.03 7.38 6.98 7.42 6.92C7.44 6.92 7.47 6.92 7.5 6.92C7.52 6.88 7.55 6.84 7.58 6.8C7.6 6.8 7.63 6.8 7.66 6.8C7.68 6.76 7.71 6.72 7.74 6.68C7.76 6.68 7.79 6.68 7.82 6.68C7.83 6.66 7.84 6.63 7.86 6.6C7.88 6.6 7.91 6.6 7.94 6.6C7.96 6.56 7.99 6.52 8.02 6.48C8.04 6.48 8.07 6.48 8.1 6.48C8.11 6.46 8.12 6.43 8.14 6.4C8.16 6.4 8.19 6.4 8.22 6.4C8.23 6.38 8.24 6.35 8.26 6.32C8.28 6.32 8.31 6.32 8.33 6.32C8.35 6.3 8.36 6.27 8.37 6.24C8.4 6.24 8.43 6.24 8.45 6.24C8.47 6.22 8.48 6.19 8.49 6.16C8.55 6.15 8.6 6.14 8.65 6.12C8.67 6.1 8.68 6.07 8.69 6.04C8.73 6.03 8.77 6.02 8.81 6C8.81 5.99 8.81 5.98 8.81 5.96C8.84 5.96 8.87 5.96 8.89 5.96C8.89 5.95 8.89 5.94 8.89 5.92C8.92 5.92 8.95 5.92 8.97 5.92C8.97 5.91 8.97 5.9 8.97 5.88C9 5.88 9.03 5.88 9.05 5.88C9.07 5.86 9.08 5.83 9.09 5.8C9.12 5.8 9.15 5.8 9.17 5.8C9.17 5.79 9.17 5.78 9.17 5.76C9.2 5.76 9.23 5.76 9.25 5.76C9.25 5.75 9.25 5.74 9.25 5.72C9.28 5.72 9.31 5.72 9.33 5.72C9.33 5.71 9.33 5.7 9.33 5.68C9.36 5.68 9.39 5.68 9.41 5.68C9.43 5.66 9.44 5.63 9.45 5.6C9.48 5.6 9.51 5.6 9.53 5.6C9.53 5.59 9.53 5.58 9.53 5.56C9.61 5.54 9.69 5.51 9.77 5.48C9.77 5.47 9.77 5.46 9.77 5.44C9.85 5.42 9.93 5.39 10.01 5.36C10.01 5.35 10.01 5.34 10.01 5.32C10.05 5.32 10.09 5.32 10.13 5.32C10.13 5.31 10.13 5.3 10.13 5.28C10.16 5.28 10.19 5.28 10.21 5.28C10.21 5.27 10.21 5.26 10.21 5.24C10.29 5.22 10.37 5.19 10.45 5.16C10.45 5.15 10.45 5.14 10.45 5.12C10.49 5.12 10.53 5.12 10.57 5.12C10.57 5.11 10.57 5.1 10.57 5.08C10.6 5.08 10.62 5.08 10.65 5.08C10.65 5.07 10.65 5.06 10.65 5.04C10.69 5.04 10.73 5.04 10.77 5.04C10.77 5.03 10.77 5.02 10.77 5C10.8 5 10.82 5 10.85 5C10.85 4.99 10.85 4.98 10.85 4.96C10.89 4.96 10.93 4.96 10.97 4.96C10.97 4.95 10.97 4.94 10.97 4.92C11 4.92 11.02 4.92 11.05 4.92C11.05 4.91 11.05 4.9 11.05 4.88C11.17 4.86 11.29 4.83 11.41 4.8C11.41 4.79 11.41 4.78 11.41 4.76C11.44 4.76 11.46 4.76 11.49 4.76C11.49 4.75 11.49 4.74 11.49 4.72C11.58 4.71 11.68 4.7 11.77 4.68C11.77 4.67 11.77 4.66 11.77 4.64C11.81 4.64 11.85 4.64 11.89 4.64C11.89 4.63 11.89 4.62 11.89 4.6C11.93 4.6 11.97 4.6 12.01 4.6C12.01 4.59 12.01 4.58 12.01 4.56C12.05 4.56 12.09 4.56 12.13 4.56C12.13 4.55 12.13 4.54 12.13 4.52C12.24 4.51 12.34 4.5 12.45 4.48C12.45 4.47 12.45 4.46 12.45 4.44C12.5 4.44 12.55 4.44 12.61 4.44C12.61 4.43 12.61 4.42 12.61 4.4C12.66 4.4 12.71 4.4 12.77 4.4C12.77 4.39 12.77 4.38 12.77 4.36C12.82 4.36 12.87 4.36 12.93 4.36C12.93 4.35 12.93 4.34 12.93 4.32C12.99 4.32 13.06 4.32 13.13 4.32C13.13 4.31 13.13 4.3 13.13 4.28C13.26 4.27 13.39 4.26 13.53 4.24C13.53 4.23 13.53 4.22 13.53 4.2C13.61 4.2 13.69 4.2 13.77 4.2C13.77 4.19 13.77 4.18 13.77 4.16C13.86 4.16 13.95 4.16 14.05 4.16C14.05 4.15 14.05 4.14 14.05 4.12C14.14 4.12 14.23 4.12 14.33 4.12C14.33 4.11 14.33 4.1 14.33 4.08C14.44 4.08 14.56 4.08 14.68 4.08C14.68 4.07 14.68 4.06 14.68 4.04C14.87 4.04 15.06 4.04 15.24 4.04C15.55 3.96 16.45 3.96 16.76 4.04C16.95 4.04 17.13 4.04 17.32 4.04C17.32 4.06 17.32 4.07 17.32 4.08C17.44 4.08 17.56 4.08 17.68 4.08C17.68 4.1 17.68 4.11 17.68 4.12C17.77 4.12 17.87 4.12 17.96 4.12C17.96 4.14 17.96 4.15 17.96 4.16C18.05 4.16 18.15 4.16 18.24 4.16C18.24 4.18 18.24 4.19 18.24 4.2C18.39 4.22 18.53 4.23 18.68 4.24C18.68 4.26 18.68 4.27 18.68 4.28C18.81 4.3 18.94 4.31 19.08 4.32C19.08 4.34 19.08 4.35 19.08 4.36C19.18 4.38 19.29 4.39 19.4 4.4C19.4 4.42 19.4 4.43 19.4 4.44C19.45 4.44 19.5 4.44 19.56 4.44C19.56 4.46 19.56 4.47 19.56 4.48C19.61 4.48 19.66 4.48 19.72 4.48C19.72 4.5 19.72 4.51 19.72 4.52C19.77 4.52 19.82 4.52 19.88 4.52C19.88 4.54 19.88 4.55 19.88 4.56C19.92 4.56 19.96 4.56 20 4.56C20 4.58 20 4.59 20 4.6C20.04 4.6 20.08 4.6 20.12 4.6C20.12 4.62 20.12 4.63 20.12 4.64C20.16 4.64 20.2 4.64 20.24 4.64C20.24 4.66 20.24 4.67 20.24 4.68C20.29 4.68 20.34 4.68 20.4 4.68C20.4 4.7 20.4 4.71 20.4 4.72C20.44 4.72 20.48 4.72 20.52 4.72C20.52 4.74 20.52 4.75 20.52 4.76C20.58 4.78 20.65 4.79 20.71 4.8C20.71 4.82 20.71 4.83 20.71 4.84C20.67 4.87 20.53 5.04 20.52 5.08C20.52 5.15 20.52 5.22 20.52 5.28C20.5 5.28 20.49 5.28 20.48 5.28C20.48 5.34 20.48 5.39 20.48 5.44C20.46 5.44 20.45 5.44 20.44 5.44C20.44 5.5 20.44 5.55 20.44 5.6C20.42 5.6 20.41 5.6 20.4 5.6C20.4 5.66 20.4 5.71 20.4 5.76C20.38 5.76 20.37 5.76 20.36 5.76C20.36 5.82 20.36 5.87 20.36 5.92C20.34 5.92 20.33 5.92 20.32 5.92C20.32 6.64 20.32 7.36 20.32 8.08ZM23.75 14.73C23.79 14.86 23.83 14.99 23.87 15.13C23.88 15.13 23.9 15.13 23.91 15.13C23.91 15.17 23.91 15.21 23.91 15.25C23.92 15.25 23.94 15.25 23.95 15.25C23.95 15.29 23.95 15.33 23.95 15.37C23.96 15.37 23.98 15.37 23.99 15.37C23.99 15.41 23.99 15.45 23.99 15.49C24 15.49 24.02 15.49 24.03 15.49C24.04 15.58 24.06 15.67 24.07 15.77C24.08 15.77 24.1 15.77 24.11 15.77C24.19 16.18 24.27 16.59 24.35 17.01C24.35 17.15 24.35 17.3 24.35 17.45C24.36 17.45 24.38 17.45 24.39 17.45C24.39 17.65 24.39 17.85 24.39 18.05C24.39 18.57 24.35 19.11 24.23 19.53C24.22 19.66 24.2 19.79 24.19 19.93C24.18 19.93 24.16 19.93 24.15 19.93C24.14 20.03 24.12 20.14 24.11 20.25C24.1 20.25 24.08 20.25 24.07 20.25C24.06 20.34 24.04 20.43 24.03 20.53C24.02 20.53 24 20.53 23.99 20.53C23.99 20.57 23.99 20.61 23.99 20.65C23.98 20.65 23.96 20.65 23.95 20.65C23.95 20.69 23.95 20.73 23.95 20.77C23.94 20.77 23.92 20.77 23.91 20.77C23.91 20.81 23.91 20.85 23.91 20.89C23.9 20.89 23.88 20.89 23.87 20.89C23.87 20.91 23.87 20.94 23.87 20.97C23.86 20.97 23.84 20.97 23.83 20.97C23.83 21.01 23.83 21.05 23.83 21.09C23.82 21.09 23.8 21.09 23.79 21.09C23.79 21.11 23.79 21.14 23.79 21.17C23.78 21.17 23.76 21.17 23.75 21.17C23.75 21.21 23.75 21.25 23.75 21.29C23.74 21.29 23.72 21.29 23.71 21.29C23.7 21.34 23.68 21.39 23.67 21.45C23.66 21.45 23.64 21.45 23.63 21.45C23.63 21.47 23.63 21.5 23.63 21.53C23.62 21.53 23.6 21.53 23.59 21.53C23.59 21.57 23.59 21.61 23.59 21.65C23.58 21.65 23.56 21.65 23.55 21.65C23.54 21.7 23.52 21.75 23.51 21.81C23.5 21.81 23.48 21.81 23.47 21.81C23.46 21.86 23.44 21.91 23.43 21.97C23.4 21.98 23.38 21.99 23.35 22.01C23.32 22.09 23.3 22.17 23.27 22.25C23.24 22.26 23.22 22.27 23.19 22.29C23.18 22.34 23.16 22.39 23.15 22.45C23.14 22.45 23.12 22.45 23.11 22.45C23.1 22.49 23.08 22.53 23.07 22.57C23.04 22.58 23.02 22.59 22.99 22.61C22.99 22.63 22.99 22.66 22.99 22.69C22.98 22.69 22.96 22.69 22.95 22.69C22.94 22.73 22.92 22.77 22.91 22.81C22.88 22.82 22.86 22.83 22.83 22.85C22.83 22.87 22.83 22.9 22.83 22.93C22.79 22.95 22.75 22.98 22.71 23.01C22.71 23.03 22.71 23.06 22.71 23.09C22.67 23.11 22.63 23.14 22.59 23.17C22.59 23.19 22.59 23.22 22.59 23.25C22.53 23.3 22.46 23.35 22.39 23.41C22.39 23.43 22.39 23.46 22.39 23.49C22.26 23.61 22.13 23.73 21.99 23.85C21.82 24.03 21.65 24.22 21.47 24.41C21.45 24.41 21.42 24.41 21.39 24.41C21.34 24.47 21.29 24.54 21.23 24.61C21.21 24.61 21.18 24.61 21.15 24.61C21.13 24.65 21.1 24.69 21.07 24.73C21.05 24.73 21.02 24.73 20.99 24.73C20.97 24.77 20.94 24.81 20.91 24.85C20.89 24.85 20.86 24.85 20.83 24.85C20.82 24.87 20.81 24.9 20.79 24.93C20.75 24.94 20.71 24.95 20.67 24.97C20.67 24.98 20.67 24.99 20.67 25.01C20.65 25.01 20.62 25.01 20.59 25.01C20.58 25.03 20.57 25.06 20.55 25.09C20.52 25.1 20.48 25.11 20.44 25.13C20.44 25.14 20.44 25.15 20.44 25.17C20.38 25.18 20.33 25.19 20.28 25.21C20.26 25.23 20.25 25.26 20.24 25.29C20.16 25.31 20.08 25.34 20 25.37C19.98 25.39 19.97 25.42 19.96 25.45C19.9 25.46 19.85 25.47 19.8 25.49C19.8 25.5 19.8 25.51 19.8 25.53C19.74 25.54 19.69 25.55 19.64 25.57C19.64 25.58 19.64 25.59 19.64 25.61C19.6 25.61 19.56 25.61 19.52 25.61C19.52 25.62 19.52 25.63 19.52 25.65C19.49 25.65 19.46 25.65 19.44 25.65C19.44 25.66 19.44 25.67 19.44 25.69C19.38 25.7 19.33 25.71 19.28 25.73C19.28 25.74 19.28 25.75 19.28 25.77C19.24 25.77 19.2 25.77 19.16 25.77C19.16 25.78 19.16 25.79 19.16 25.81C19.13 25.81 19.1 25.81 19.08 25.81C19.08 25.82 19.08 25.83 19.08 25.85C19.01 25.86 18.94 25.87 18.88 25.89C18.88 25.9 18.88 25.91 18.88 25.93C18.84 25.93 18.8 25.93 18.76 25.93C18.76 25.94 18.76 25.95 18.76 25.97C18.72 25.97 18.68 25.97 18.64 25.97C18.64 25.98 18.64 25.99 18.64 26.01C18.6 26.01 18.56 26.01 18.52 26.01C18.52 26.02 18.52 26.03 18.52 26.05C18.43 26.06 18.33 26.07 18.24 26.09C18.24 26.1 18.24 26.11 18.24 26.13C18.13 26.14 18.03 26.15 17.92 26.17C17.92 26.18 17.92 26.19 17.92 26.21C17.85 26.21 17.79 26.21 17.72 26.21C17.72 26.22 17.72 26.23 17.72 26.25C17.65 26.25 17.59 26.25 17.52 26.25C17.52 26.26 17.52 26.27 17.52 26.29C17.44 26.29 17.36 26.29 17.28 26.29C17.28 26.3 17.28 26.31 17.28 26.33C17.19 26.33 17.09 26.33 17 26.33C17 26.34 17 26.35 17 26.37C16.85 26.37 16.71 26.37 16.56 26.37C16.13 26.49 15.09 26.4 14.72 26.29C14.64 26.29 14.56 26.29 14.48 26.29C14.03 26.17 13.58 26.05 13.13 25.93C13.13 25.91 13.13 25.9 13.13 25.89C13.1 25.89 13.07 25.89 13.05 25.89C13.05 25.87 13.05 25.86 13.05 25.85C13.01 25.85 12.97 25.85 12.93 25.85C12.93 25.83 12.93 25.82 12.93 25.81C12.9 25.81 12.87 25.81 12.85 25.81C12.85 25.79 12.85 25.78 12.85 25.77C12.81 25.77 12.77 25.77 12.73 25.77C12.73 25.75 12.73 25.74 12.73 25.73C12.67 25.71 12.62 25.7 12.57 25.69C12.57 25.67 12.57 25.66 12.57 25.65C12.54 25.65 12.51 25.65 12.49 25.65C12.49 25.63 12.49 25.62 12.49 25.61C12.37 25.57 12.25 25.53 12.13 25.49C12.12 25.46 12.1 25.43 12.09 25.41C12.06 25.41 12.04 25.41 12.01 25.41C12.01 25.39 12.01 25.38 12.01 25.37C11.98 25.37 11.96 25.37 11.93 25.37C11.93 25.35 11.93 25.34 11.93 25.33C11.9 25.33 11.88 25.33 11.85 25.33C11.85 25.31 11.85 25.3 11.85 25.29C11.82 25.29 11.8 25.29 11.77 25.29C11.76 25.26 11.74 25.23 11.73 25.21C11.68 25.19 11.62 25.18 11.57 25.17C11.56 25.14 11.54 25.11 11.53 25.09C11.5 25.09 11.48 25.09 11.45 25.09C11.44 25.06 11.42 25.03 11.41 25.01C11.38 25.01 11.36 25.01 11.33 25.01C11.33 24.99 11.33 24.98 11.33 24.97C11.29 24.95 11.25 24.94 11.21 24.93C11.2 24.9 11.18 24.87 11.17 24.85C11.14 24.85 11.12 24.85 11.09 24.85C11.06 24.81 11.04 24.77 11.01 24.73C10.98 24.73 10.96 24.73 10.93 24.73C10.9 24.69 10.88 24.65 10.85 24.61C10.82 24.61 10.8 24.61 10.77 24.61C10.72 24.54 10.66 24.47 10.61 24.41C10.58 24.41 10.56 24.41 10.53 24.41C10.31 24.17 10.08 23.93 9.85 23.69C9.77 23.62 9.69 23.55 9.61 23.49C9.61 23.46 9.61 23.43 9.61 23.41C9.55 23.35 9.48 23.3 9.41 23.25C9.41 23.22 9.41 23.19 9.41 23.17C9.37 23.14 9.33 23.11 9.29 23.09C9.29 23.06 9.29 23.03 9.29 23.01C9.25 22.98 9.21 22.95 9.17 22.93C9.17 22.9 9.17 22.87 9.17 22.85C9.15 22.83 9.12 22.82 9.09 22.81C9.09 22.78 9.09 22.75 9.09 22.73C9.07 22.71 9.04 22.7 9.01 22.69C9.01 22.66 9.01 22.63 9.01 22.61C8.99 22.59 8.96 22.58 8.93 22.57C8.93 22.54 8.93 22.51 8.93 22.49C8.91 22.47 8.88 22.46 8.85 22.45C8.84 22.39 8.83 22.34 8.81 22.29C8.79 22.27 8.76 22.26 8.73 22.25C8.73 22.22 8.73 22.19 8.73 22.17C8.72 22.17 8.71 22.17 8.69 22.17C8.69 22.14 8.69 22.11 8.69 22.09C8.68 22.09 8.67 22.09 8.65 22.09C8.65 22.06 8.65 22.03 8.65 22.01C8.64 22.01 8.63 22.01 8.61 22.01C8.61 21.98 8.61 21.95 8.61 21.93C8.59 21.91 8.56 21.9 8.53 21.89C8.49 21.77 8.45 21.65 8.41 21.53C8.4 21.53 8.39 21.53 8.37 21.53C8.37 21.5 8.37 21.47 8.37 21.45C8.36 21.45 8.35 21.45 8.33 21.45C8.32 21.39 8.31 21.34 8.29 21.29C8.28 21.29 8.27 21.29 8.26 21.29C8.26 21.25 8.26 21.21 8.26 21.17C8.24 21.17 8.23 21.17 8.22 21.17C8.22 21.14 8.22 21.11 8.22 21.09C8.2 21.09 8.19 21.09 8.18 21.09C8.18 21.05 8.18 21.01 8.18 20.97C8.16 20.97 8.15 20.97 8.14 20.97C8.14 20.94 8.14 20.91 8.14 20.89C8.12 20.89 8.11 20.89 8.1 20.89C8.1 20.85 8.1 20.81 8.1 20.77C8.08 20.77 8.07 20.77 8.06 20.77C8.06 20.73 8.06 20.69 8.06 20.65C8.04 20.65 8.03 20.65 8.02 20.65C8.02 20.61 8.02 20.57 8.02 20.53C8 20.53 7.99 20.53 7.98 20.53C7.98 20.47 7.98 20.42 7.98 20.37C7.96 20.37 7.95 20.37 7.94 20.37C7.94 20.33 7.94 20.29 7.94 20.25C7.92 20.25 7.91 20.25 7.9 20.25C7.82 19.83 7.74 19.42 7.66 19.01C7.66 18.86 7.66 18.71 7.66 18.57C7.64 18.57 7.63 18.57 7.62 18.57C7.56 18.37 7.62 17.59 7.66 17.45C7.66 17.3 7.66 17.15 7.66 17.01C7.74 16.72 7.77 16.35 7.86 16.09C7.86 16.03 7.86 15.98 7.86 15.93C7.87 15.93 7.88 15.93 7.9 15.93C7.9 15.87 7.9 15.82 7.9 15.77C7.91 15.77 7.92 15.77 7.94 15.77C7.94 15.73 7.94 15.69 7.94 15.65C7.95 15.65 7.96 15.65 7.98 15.65C7.98 15.59 7.98 15.54 7.98 15.49C7.99 15.49 8 15.49 8.02 15.49C8.02 15.45 8.02 15.41 8.02 15.37C8.03 15.37 8.04 15.37 8.06 15.37C8.06 15.33 8.06 15.29 8.06 15.25C8.07 15.25 8.08 15.25 8.1 15.25C8.1 15.21 8.1 15.17 8.1 15.13C8.11 15.13 8.12 15.13 8.14 15.13C8.14 15.1 8.14 15.07 8.14 15.05C8.15 15.05 8.16 15.05 8.18 15.05C8.18 15.01 8.18 14.97 8.18 14.93C8.19 14.93 8.2 14.93 8.22 14.93C8.22 14.9 8.22 14.87 8.22 14.85C8.23 14.85 8.24 14.85 8.26 14.85C8.26 14.81 8.26 14.77 8.26 14.73C8.27 14.73 8.28 14.73 8.29 14.73C8.31 14.67 8.32 14.62 8.33 14.57C8.35 14.57 8.36 14.57 8.37 14.57C8.37 14.54 8.37 14.51 8.37 14.49C8.39 14.49 8.4 14.49 8.41 14.49C8.41 14.45 8.41 14.41 8.41 14.37C8.43 14.37 8.44 14.37 8.45 14.37C8.47 14.31 8.48 14.26 8.49 14.21C8.51 14.21 8.52 14.21 8.53 14.21C8.53 14.18 8.53 14.15 8.53 14.13C8.56 14.11 8.59 14.1 8.61 14.09C8.61 14.06 8.61 14.03 8.61 14.01C8.63 14.01 8.64 14.01 8.65 14.01C8.65 13.98 8.65 13.95 8.65 13.93C8.67 13.93 8.68 13.93 8.69 13.93C8.69 13.9 8.69 13.87 8.69 13.85C8.71 13.85 8.72 13.85 8.73 13.85C8.73 13.82 8.73 13.79 8.73 13.77C8.76 13.75 8.79 13.74 8.81 13.73C8.83 13.67 8.84 13.62 8.85 13.57C8.87 13.57 8.88 13.57 8.89 13.57C8.91 13.53 8.92 13.49 8.93 13.45C8.96 13.43 8.99 13.42 9.01 13.41C9.01 13.38 9.01 13.35 9.01 13.33C9.03 13.33 9.04 13.33 9.05 13.33C9.07 13.29 9.08 13.25 9.09 13.21C9.12 13.19 9.15 13.18 9.17 13.17C9.17 13.14 9.17 13.11 9.17 13.09C9.21 13.06 9.25 13.03 9.29 13.01C9.29 12.98 9.29 12.95 9.29 12.93C9.33 12.9 9.37 12.87 9.41 12.85C9.41 12.82 9.41 12.79 9.41 12.77C9.48 12.71 9.55 12.66 9.61 12.6C9.61 12.58 9.61 12.55 9.61 12.53C9.77 12.38 9.93 12.23 10.09 12.09C10.24 11.93 10.38 11.77 10.53 11.61C10.56 11.61 10.58 11.61 10.61 11.61C10.66 11.54 10.72 11.47 10.77 11.41C10.8 11.41 10.82 11.41 10.85 11.41C10.88 11.37 10.9 11.33 10.93 11.29C10.96 11.29 10.98 11.29 11.01 11.29C11.04 11.24 11.06 11.21 11.09 11.17C11.12 11.17 11.14 11.17 11.17 11.17C11.18 11.14 11.2 11.11 11.21 11.08C11.25 11.07 11.29 11.06 11.33 11.05C11.33 11.03 11.33 11.02 11.33 11C11.36 11 11.38 11 11.41 11C11.42 10.98 11.44 10.95 11.45 10.93C11.49 10.91 11.53 10.9 11.57 10.88C11.57 10.87 11.57 10.86 11.57 10.84C11.62 10.83 11.68 10.82 11.73 10.81C11.74 10.78 11.76 10.75 11.77 10.72C11.85 10.7 11.93 10.67 12.01 10.64C12.01 10.63 12.01 10.62 12.01 10.6C12.04 10.6 12.06 10.6 12.09 10.6C12.1 10.58 12.12 10.55 12.13 10.52C12.25 10.48 12.37 10.44 12.49 10.41C12.49 10.39 12.49 10.38 12.49 10.36C12.51 10.36 12.54 10.36 12.57 10.36C12.57 10.35 12.57 10.34 12.57 10.32C12.62 10.31 12.67 10.3 12.73 10.29C12.73 10.27 12.73 10.26 12.73 10.24C12.77 10.24 12.81 10.24 12.85 10.24C12.85 10.23 12.85 10.22 12.85 10.2C12.87 10.2 12.9 10.2 12.93 10.2C12.93 10.19 12.93 10.18 12.93 10.16C12.97 10.16 13.01 10.16 13.05 10.16C13.05 10.15 13.05 10.14 13.05 10.13C13.07 10.13 13.1 10.13 13.13 10.13C13.13 10.11 13.13 10.1 13.13 10.08C13.17 10.08 13.21 10.08 13.25 10.08C13.25 10.07 13.25 10.06 13.25 10.05C13.29 10.05 13.33 10.05 13.37 10.05C13.37 10.03 13.37 10.02 13.37 10C13.41 10 13.45 10 13.49 10C13.49 9.99 13.49 9.98 13.49 9.96C13.58 9.95 13.67 9.94 13.77 9.92C13.77 9.91 13.77 9.9 13.77 9.89C13.82 9.89 13.87 9.89 13.93 9.89C13.93 9.87 13.93 9.86 13.93 9.84C13.98 9.84 14.03 9.84 14.09 9.84C14.09 9.83 14.09 9.82 14.09 9.8C14.15 9.8 14.22 9.8 14.29 9.8C14.29 9.79 14.29 9.78 14.29 9.77C14.35 9.77 14.42 9.77 14.48 9.77C14.48 9.75 14.48 9.74 14.48 9.72C14.56 9.72 14.64 9.72 14.72 9.72C14.72 9.71 14.72 9.7 14.72 9.69C14.82 9.69 14.91 9.69 15 9.69C15 9.67 15 9.66 15 9.64C15.15 9.64 15.3 9.64 15.44 9.64C15.58 9.61 16.37 9.55 16.56 9.61C16.56 9.62 16.56 9.63 16.56 9.64C16.71 9.64 16.85 9.64 17 9.64C17 9.66 17 9.67 17 9.69C17.09 9.69 17.19 9.69 17.28 9.69C17.28 9.7 17.28 9.71 17.28 9.72C17.36 9.72 17.44 9.72 17.52 9.72C17.52 9.74 17.52 9.75 17.52 9.77C17.59 9.77 17.65 9.77 17.72 9.77C17.72 9.78 17.72 9.79 17.72 9.8C17.84 9.82 17.96 9.83 18.08 9.84C18.08 9.86 18.08 9.87 18.08 9.89C18.13 9.89 18.19 9.89 18.24 9.89C18.24 9.9 18.24 9.91 18.24 9.92C18.33 9.94 18.43 9.95 18.52 9.96C18.52 9.98 18.52 9.99 18.52 10C18.56 10 18.6 10 18.64 10C18.64 10.02 18.64 10.03 18.64 10.05C18.68 10.05 18.72 10.05 18.76 10.05C18.76 10.06 18.76 10.07 18.76 10.08C18.8 10.08 18.84 10.08 18.88 10.08C18.88 10.1 18.88 10.11 18.88 10.13C18.9 10.13 18.93 10.13 18.96 10.13C18.96 10.14 18.96 10.15 18.96 10.16C19.1 10.23 19.26 10.21 19.36 10.32C19.34 10.32 19.33 10.32 19.32 10.32C19.26 10.43 19.16 10.48 19.08 10.57C18.92 10.72 18.76 10.88 18.6 11.05C18.45 11.21 18.31 11.37 18.16 11.53C18.09 11.58 18.03 11.63 17.96 11.69C17.96 11.71 17.96 11.74 17.96 11.77C17.92 11.78 17.88 11.79 17.84 11.8C17.83 11.83 17.81 11.86 17.8 11.88C17.73 11.94 17.67 11.99 17.6 12.05C17.53 12.14 17.47 12.23 17.4 12.32C17.37 12.32 17.35 12.32 17.32 12.32C17.16 12.5 17 12.67 16.84 12.85C16.71 12.85 16.57 12.85 16.44 12.85C16.39 12.8 15.69 12.77 15.56 12.81C15.56 12.82 15.56 12.83 15.56 12.85C15.44 12.85 15.32 12.85 15.2 12.85C15.2 12.86 15.2 12.87 15.2 12.89C15.14 12.89 15.07 12.89 15 12.89C15 12.9 15 12.91 15 12.93C14.94 12.93 14.87 12.93 14.8 12.93C14.8 12.94 14.8 12.95 14.8 12.96C14.75 12.96 14.7 12.96 14.64 12.96C14.64 12.98 14.64 12.99 14.64 13.01C14.6 13.01 14.56 13.01 14.52 13.01C14.52 13.02 14.52 13.03 14.52 13.05C14.47 13.05 14.42 13.05 14.37 13.05C14.37 13.06 14.37 13.07 14.37 13.09C14.34 13.09 14.31 13.09 14.29 13.09C14.29 13.1 14.29 13.11 14.29 13.12C14.21 13.14 14.13 13.15 14.05 13.17C14.05 13.18 14.05 13.19 14.05 13.21C13.99 13.22 13.94 13.23 13.89 13.25C13.89 13.26 13.89 13.27 13.89 13.29C13.85 13.29 13.81 13.29 13.77 13.29C13.77 13.3 13.77 13.31 13.77 13.33C13.74 13.33 13.71 13.33 13.69 13.33C13.69 13.34 13.69 13.35 13.69 13.37C13.66 13.37 13.63 13.37 13.61 13.37C13.59 13.39 13.58 13.42 13.57 13.45C13.49 13.47 13.41 13.5 13.33 13.53C13.31 13.55 13.3 13.58 13.29 13.61C13.23 13.62 13.18 13.63 13.13 13.65C13.1 13.69 13.07 13.73 13.05 13.77C13.02 13.77 12.99 13.77 12.97 13.77C12.95 13.79 12.94 13.82 12.93 13.85C12.9 13.85 12.87 13.85 12.85 13.85C12.81 13.9 12.77 13.95 12.73 14.01C11.98 14.54 11.47 15.34 11.09 16.25C11.08 16.34 11.06 16.43 11.05 16.53C11.04 16.53 11.02 16.53 11.01 16.53C11.01 16.57 11.01 16.61 11.01 16.65C11 16.65 10.98 16.65 10.97 16.65C10.97 16.7 10.97 16.75 10.97 16.81C10.96 16.81 10.94 16.81 10.93 16.81C10.93 16.87 10.93 16.94 10.93 17.01C10.77 17.55 10.76 18.47 10.93 19.01C10.94 19.13 10.96 19.25 10.97 19.37C10.98 19.37 11 19.37 11.01 19.37C11.01 19.41 11.01 19.45 11.01 19.49C11.02 19.49 11.04 19.49 11.05 19.49C11.06 19.58 11.08 19.67 11.09 19.77C11.1 19.77 11.12 19.77 11.13 19.77C11.13 19.79 11.13 19.82 11.13 19.85C11.14 19.85 11.16 19.85 11.17 19.85C11.17 19.89 11.17 19.93 11.17 19.97C11.18 19.97 11.2 19.97 11.21 19.97C11.22 20.02 11.24 20.07 11.25 20.13C11.26 20.13 11.28 20.13 11.29 20.13C11.33 20.25 11.37 20.37 11.41 20.49C11.44 20.5 11.46 20.51 11.49 20.53C11.5 20.58 11.52 20.63 11.53 20.69C11.56 20.7 11.58 20.71 11.61 20.73C11.62 20.78 11.64 20.83 11.65 20.89C11.69 20.91 11.73 20.94 11.77 20.97C11.78 21.01 11.8 21.05 11.81 21.09C11.82 21.09 11.84 21.09 11.85 21.09C11.85 21.11 11.85 21.14 11.85 21.17C11.9 21.21 11.96 21.25 12.01 21.29C12.66 22.19 13.62 22.71 14.8 23.09C14.87 23.09 14.94 23.09 15 23.09C15 23.1 15 23.11 15 23.13C15.07 23.13 15.14 23.13 15.2 23.13C15.2 23.14 15.2 23.15 15.2 23.17C15.32 23.17 15.44 23.17 15.56 23.17C15.56 23.18 15.56 23.19 15.56 23.21C15.76 23.26 16.3 23.21 16.44 23.17C16.56 23.17 16.68 23.17 16.8 23.17C16.8 23.15 16.8 23.14 16.8 23.13C16.87 23.13 16.93 23.13 17 23.13C17 23.11 17 23.1 17 23.09C17.07 23.09 17.13 23.09 17.2 23.09C17.2 23.07 17.2 23.06 17.2 23.05C17.25 23.05 17.31 23.05 17.36 23.05C17.36 23.03 17.36 23.02 17.36 23.01C17.4 23.01 17.44 23.01 17.48 23.01C17.48 22.99 17.48 22.98 17.48 22.97C17.53 22.97 17.59 22.97 17.64 22.97C17.64 22.95 17.64 22.94 17.64 22.93C17.67 22.93 17.69 22.93 17.72 22.93C17.72 22.91 17.72 22.9 17.72 22.89C17.8 22.87 17.88 22.86 17.96 22.85C17.96 22.83 17.96 22.82 17.96 22.81C18.01 22.79 18.07 22.78 18.12 22.77C18.12 22.75 18.12 22.74 18.12 22.73C18.24 22.69 18.36 22.65 18.48 22.61C18.49 22.58 18.5 22.55 18.52 22.53C18.57 22.51 18.62 22.5 18.68 22.49C18.69 22.46 18.7 22.43 18.72 22.41C18.74 22.41 18.77 22.41 18.8 22.41C18.8 22.39 18.8 22.38 18.8 22.37C18.82 22.37 18.85 22.37 18.88 22.37C18.9 22.33 18.93 22.29 18.96 22.25C18.98 22.25 19.01 22.25 19.04 22.25C19.05 22.22 19.06 22.19 19.08 22.17C19.1 22.17 19.13 22.17 19.16 22.17C19.2 22.11 19.24 22.06 19.28 22.01C19.3 22.01 19.33 22.01 19.36 22.01C19.48 21.87 19.6 21.74 19.72 21.61C19.81 21.53 19.9 21.45 20 21.37C20 21.34 20 21.31 20 21.29C20.05 21.25 20.1 21.21 20.16 21.17C20.16 21.14 20.16 21.11 20.16 21.09C20.18 21.07 20.21 21.06 20.24 21.05C20.24 21.02 20.24 20.99 20.24 20.97C20.28 20.94 20.32 20.91 20.36 20.89C20.36 20.86 20.36 20.83 20.36 20.81C20.37 20.81 20.38 20.81 20.4 20.81C20.4 20.78 20.4 20.75 20.4 20.73C20.42 20.71 20.45 20.7 20.48 20.69C20.49 20.63 20.5 20.58 20.52 20.53C20.54 20.51 20.57 20.5 20.59 20.49C20.59 20.46 20.59 20.43 20.59 20.41C20.61 20.41 20.62 20.41 20.63 20.41C20.65 20.35 20.66 20.3 20.67 20.25C20.69 20.25 20.7 20.25 20.71 20.25C20.71 20.21 20.71 20.17 20.71 20.13C20.73 20.13 20.74 20.13 20.75 20.13C20.77 20.07 20.78 20.02 20.79 19.97C20.81 19.97 20.82 19.97 20.83 19.97C20.85 19.9 20.86 19.83 20.87 19.77C20.89 19.77 20.9 19.77 20.91 19.77C20.93 19.67 20.94 19.58 20.95 19.49C20.97 19.49 20.98 19.49 20.99 19.49C20.99 19.45 20.99 19.41 20.99 19.37C21.01 19.37 21.02 19.37 21.03 19.37C21.03 19.31 21.03 19.26 21.03 19.21C21.05 19.21 21.06 19.21 21.07 19.21C21.07 19.14 21.07 19.07 21.07 19.01C21.09 19.01 21.1 19.01 21.11 19.01C21.11 18.94 21.11 18.87 21.11 18.81C21.13 18.81 21.14 18.81 21.15 18.81C21.15 18.69 21.15 18.57 21.15 18.45C21.26 18.08 21.15 17.6 21.15 17.21C21.25 17.14 21.34 17.07 21.43 17.01C21.45 16.97 21.46 16.93 21.47 16.89C21.63 16.75 21.79 16.62 21.95 16.49C21.95 16.46 21.95 16.43 21.95 16.41C21.97 16.41 21.98 16.41 21.99 16.41C22.05 16.34 22.1 16.27 22.15 16.21C22.18 16.21 22.21 16.21 22.23 16.21C22.25 16.18 22.26 16.15 22.27 16.13C22.29 16.13 22.3 16.13 22.31 16.13C22.43 15.98 22.55 15.83 22.67 15.69C22.7 15.69 22.72 15.69 22.75 15.69C22.78 15.65 22.8 15.61 22.83 15.57C22.86 15.55 22.88 15.54 22.91 15.53C22.91 15.5 22.91 15.47 22.91 15.45C22.99 15.38 23.07 15.31 23.15 15.25C23.16 15.22 23.18 15.19 23.19 15.17C23.22 15.17 23.24 15.17 23.27 15.17C23.3 15.13 23.32 15.09 23.35 15.05C23.38 15.03 23.4 15.02 23.43 15.01C23.43 14.98 23.43 14.95 23.43 14.93C23.44 14.93 23.46 14.93 23.47 14.93C23.52 14.86 23.58 14.79 23.63 14.73C23.67 14.73 23.71 14.73 23.75 14.73Z" />
		<text id="Dart service manager " style="transform: matrix(1,0,0,1,42,15)" >
			<tspan x="0" y="0" class="txt1">Dart</tspan>
			<tspan x="0" y="16.8" class="txt2">service manager</tspan>
		</text>
	</g>
</svg>